<mxfile host="app.diagrams.net" modified="2022-09-11T22:41:32.306Z" agent="5.0 (Macintosh; Intel Mac OS X 10_15_7) AppleWebKit/537.36 (KHTML, like Gecko) Chrome/104.0.0.0 Safari/537.36" etag="dN4y7H-saMAVOR84i7FJ" version="20.3.0" type="github">
  <diagram id="Wv9NXA332S_Q2FNm08Of" name="Page-1">
    <mxGraphModel dx="827" dy="546" grid="1" gridSize="10" guides="1" tooltips="1" connect="1" arrows="1" fold="1" page="1" pageScale="1" pageWidth="850" pageHeight="1100" math="0" shadow="0">
      <root>
        <mxCell id="0" />
        <mxCell id="1" parent="0" />
        <mxCell id="OiGwJ8LN1cg6I7LWD9FY-1" value="" style="rounded=0;whiteSpace=wrap;html=1;strokeColor=#F0F0F0;" vertex="1" parent="1">
          <mxGeometry x="30" y="40" width="660" height="490" as="geometry" />
        </mxCell>
        <mxCell id="OiGwJ8LN1cg6I7LWD9FY-2" value="App" style="text;html=1;strokeColor=none;fillColor=none;align=center;verticalAlign=middle;whiteSpace=wrap;rounded=0;" vertex="1" parent="1">
          <mxGeometry x="330" y="40" width="60" height="30" as="geometry" />
        </mxCell>
        <mxCell id="OiGwJ8LN1cg6I7LWD9FY-3" value="" style="rounded=0;whiteSpace=wrap;html=1;strokeColor=#F0F0F0;" vertex="1" parent="1">
          <mxGeometry x="50" y="70" width="610" height="30" as="geometry" />
        </mxCell>
        <mxCell id="OiGwJ8LN1cg6I7LWD9FY-25" style="edgeStyle=orthogonalEdgeStyle;rounded=0;orthogonalLoop=1;jettySize=auto;html=1;exitX=0.5;exitY=0;exitDx=0;exitDy=0;entryX=0.5;entryY=0;entryDx=0;entryDy=0;" edge="1" parent="1" source="OiGwJ8LN1cg6I7LWD9FY-4" target="OiGwJ8LN1cg6I7LWD9FY-17">
          <mxGeometry relative="1" as="geometry" />
        </mxCell>
        <mxCell id="OiGwJ8LN1cg6I7LWD9FY-4" value="" style="rounded=0;whiteSpace=wrap;html=1;strokeColor=#F0F0F0;" vertex="1" parent="1">
          <mxGeometry x="60" y="130" width="170" height="260" as="geometry" />
        </mxCell>
        <mxCell id="OiGwJ8LN1cg6I7LWD9FY-5" value="" style="rounded=0;whiteSpace=wrap;html=1;strokeColor=#F0F0F0;" vertex="1" parent="1">
          <mxGeometry x="270" y="200" width="170" height="300" as="geometry" />
        </mxCell>
        <mxCell id="OiGwJ8LN1cg6I7LWD9FY-6" value="" style="rounded=0;whiteSpace=wrap;html=1;strokeColor=#F0F0F0;" vertex="1" parent="1">
          <mxGeometry x="490" y="130" width="170" height="370" as="geometry" />
        </mxCell>
        <mxCell id="OiGwJ8LN1cg6I7LWD9FY-7" style="edgeStyle=orthogonalEdgeStyle;rounded=0;orthogonalLoop=1;jettySize=auto;html=1;exitX=0.5;exitY=1;exitDx=0;exitDy=0;" edge="1" parent="1" source="OiGwJ8LN1cg6I7LWD9FY-4" target="OiGwJ8LN1cg6I7LWD9FY-4">
          <mxGeometry relative="1" as="geometry" />
        </mxCell>
        <mxCell id="OiGwJ8LN1cg6I7LWD9FY-10" value="" style="rounded=0;whiteSpace=wrap;html=1;strokeColor=#F0F0F0;" vertex="1" parent="1">
          <mxGeometry x="60" y="410" width="170" height="90" as="geometry" />
        </mxCell>
        <mxCell id="OiGwJ8LN1cg6I7LWD9FY-11" value="Text" style="text;html=1;strokeColor=none;fillColor=none;align=center;verticalAlign=middle;whiteSpace=wrap;rounded=0;" vertex="1" parent="1">
          <mxGeometry x="110" y="190" width="60" height="30" as="geometry" />
        </mxCell>
        <mxCell id="OiGwJ8LN1cg6I7LWD9FY-12" value="Text" style="text;html=1;strokeColor=none;fillColor=none;align=center;verticalAlign=middle;whiteSpace=wrap;rounded=0;" vertex="1" parent="1">
          <mxGeometry x="320" y="385" width="60" height="30" as="geometry" />
        </mxCell>
        <mxCell id="OiGwJ8LN1cg6I7LWD9FY-13" value="Add Coffee&lt;br&gt;&lt;br&gt;click for new coffee form" style="text;html=1;strokeColor=none;fillColor=none;align=center;verticalAlign=middle;whiteSpace=wrap;rounded=0;" vertex="1" parent="1">
          <mxGeometry x="90" y="440" width="100" height="30" as="geometry" />
        </mxCell>
        <mxCell id="OiGwJ8LN1cg6I7LWD9FY-14" value="COFFEE DETAIL" style="text;html=1;strokeColor=none;fillColor=none;align=center;verticalAlign=middle;whiteSpace=wrap;rounded=0;" vertex="1" parent="1">
          <mxGeometry x="545" y="140" width="60" height="30" as="geometry" />
        </mxCell>
        <mxCell id="OiGwJ8LN1cg6I7LWD9FY-15" value="NEW COFFEE FORM" style="text;html=1;strokeColor=none;fillColor=none;align=center;verticalAlign=middle;whiteSpace=wrap;rounded=0;" vertex="1" parent="1">
          <mxGeometry x="300" y="220" width="110" height="30" as="geometry" />
        </mxCell>
        <mxCell id="OiGwJ8LN1cg6I7LWD9FY-16" value="Header" style="text;html=1;strokeColor=none;fillColor=none;align=center;verticalAlign=middle;whiteSpace=wrap;rounded=0;" vertex="1" parent="1">
          <mxGeometry x="330" y="70" width="60" height="30" as="geometry" />
        </mxCell>
        <mxCell id="OiGwJ8LN1cg6I7LWD9FY-17" value="COFFEE LIST" style="text;html=1;strokeColor=none;fillColor=none;align=center;verticalAlign=middle;whiteSpace=wrap;rounded=0;" vertex="1" parent="1">
          <mxGeometry x="110" y="140" width="60" height="30" as="geometry" />
        </mxCell>
        <mxCell id="OiGwJ8LN1cg6I7LWD9FY-18" value="" style="rounded=0;whiteSpace=wrap;html=1;strokeColor=#F0F0F0;" vertex="1" parent="1">
          <mxGeometry x="80" y="180" width="120" height="60" as="geometry" />
        </mxCell>
        <mxCell id="OiGwJ8LN1cg6I7LWD9FY-19" value="" style="rounded=0;whiteSpace=wrap;html=1;strokeColor=#F0F0F0;" vertex="1" parent="1">
          <mxGeometry x="80" y="270" width="120" height="60" as="geometry" />
        </mxCell>
        <mxCell id="OiGwJ8LN1cg6I7LWD9FY-20" value="" style="rounded=0;whiteSpace=wrap;html=1;strokeColor=#F0F0F0;" vertex="1" parent="1">
          <mxGeometry x="295" y="370" width="120" height="60" as="geometry" />
        </mxCell>
        <mxCell id="OiGwJ8LN1cg6I7LWD9FY-21" value="Coffee" style="text;html=1;strokeColor=none;fillColor=none;align=center;verticalAlign=middle;whiteSpace=wrap;rounded=0;" vertex="1" parent="1">
          <mxGeometry x="110" y="280" width="60" height="30" as="geometry" />
        </mxCell>
        <mxCell id="OiGwJ8LN1cg6I7LWD9FY-22" value="Submit&lt;br&gt;&lt;br&gt;click to add coffee" style="text;html=1;strokeColor=none;fillColor=none;align=center;verticalAlign=middle;whiteSpace=wrap;rounded=0;" vertex="1" parent="1">
          <mxGeometry x="305" y="385" width="100" height="30" as="geometry" />
        </mxCell>
        <mxCell id="OiGwJ8LN1cg6I7LWD9FY-23" value="Coffee&lt;br&gt;&lt;br&gt;Click for Details" style="text;html=1;strokeColor=none;fillColor=none;align=center;verticalAlign=middle;whiteSpace=wrap;rounded=0;" vertex="1" parent="1">
          <mxGeometry x="110" y="195" width="60" height="30" as="geometry" />
        </mxCell>
        <mxCell id="OiGwJ8LN1cg6I7LWD9FY-26" value="" style="rounded=0;whiteSpace=wrap;html=1;strokeColor=#F0F0F0;" vertex="1" parent="1">
          <mxGeometry x="230" y="280" width="250" as="geometry" />
        </mxCell>
        <mxCell id="OiGwJ8LN1cg6I7LWD9FY-27" value="" style="endArrow=none;html=1;rounded=0;entryX=0.985;entryY=0.959;entryDx=0;entryDy=0;entryPerimeter=0;" edge="1" parent="1" target="OiGwJ8LN1cg6I7LWD9FY-1">
          <mxGeometry width="50" height="50" relative="1" as="geometry">
            <mxPoint x="40" y="510" as="sourcePoint" />
            <mxPoint x="320" y="280" as="targetPoint" />
            <Array as="points">
              <mxPoint x="355" y="510" />
            </Array>
          </mxGeometry>
        </mxCell>
        <mxCell id="OiGwJ8LN1cg6I7LWD9FY-29" value="" style="endArrow=none;html=1;rounded=0;" edge="1" parent="1">
          <mxGeometry width="50" height="50" relative="1" as="geometry">
            <mxPoint x="40" y="120" as="sourcePoint" />
            <mxPoint x="680" y="120" as="targetPoint" />
            <Array as="points">
              <mxPoint x="330" y="120" />
              <mxPoint x="440" y="120" />
            </Array>
          </mxGeometry>
        </mxCell>
        <mxCell id="OiGwJ8LN1cg6I7LWD9FY-30" value="" style="endArrow=none;html=1;rounded=0;" edge="1" parent="1">
          <mxGeometry width="50" height="50" relative="1" as="geometry">
            <mxPoint x="40" y="510" as="sourcePoint" />
            <mxPoint x="40" y="120" as="targetPoint" />
          </mxGeometry>
        </mxCell>
        <mxCell id="OiGwJ8LN1cg6I7LWD9FY-31" value="" style="endArrow=none;html=1;rounded=0;entryX=0.985;entryY=0.163;entryDx=0;entryDy=0;entryPerimeter=0;" edge="1" parent="1" target="OiGwJ8LN1cg6I7LWD9FY-1">
          <mxGeometry width="50" height="50" relative="1" as="geometry">
            <mxPoint x="680" y="510" as="sourcePoint" />
            <mxPoint x="320" y="280" as="targetPoint" />
          </mxGeometry>
        </mxCell>
        <mxCell id="OiGwJ8LN1cg6I7LWD9FY-33" value="COFFEE CONTROL" style="text;html=1;strokeColor=none;fillColor=none;align=center;verticalAlign=middle;whiteSpace=wrap;rounded=0;" vertex="1" parent="1">
          <mxGeometry x="270" y="140" width="170" height="30" as="geometry" />
        </mxCell>
      </root>
    </mxGraphModel>
  </diagram>
</mxfile>
